<?xml version="1.0" encoding="UTF-8"?>
<svg version="1.1" xmlns="http://www.w3.org/2000/svg" width="48" height="48">
<path d="M0 0 C5.03530963 -0.1238722 10.06972697 -0.21446514 15.10620117 -0.2746582 C16.81827245 -0.29975714 18.53023704 -0.33384429 20.24194336 -0.37719727 C22.70713645 -0.43805739 25.17090985 -0.46625432 27.63671875 -0.48828125 C28.77919319 -0.52699089 28.77919319 -0.52699089 29.94474792 -0.56648254 C33.99490309 -0.56860585 35.73888577 -0.21676287 38.89770508 2.40551758 C39.5914624 3.26169678 40.28521973 4.11787598 41 5 C41.66 5.66 42.32 6.32 43 7 C43.23046875 9.75 43.23046875 9.75 43.1875 13 C43.18105469 14.0725 43.17460938 15.145 43.16796875 16.25 C43 19 43 19 42 21 C41.34 21 40.68 21 40 21 C40.57452746 24.93075644 40.57452746 24.93075644 43 28 C43.79149008 33.07113996 44.54014484 38.78026122 41.50390625 43.15625 C34.8448705 48.80466286 28.40430934 48.28490938 20.07958984 48.35009766 C18.53353793 48.36662431 16.98756139 48.39387144 15.44189453 48.43212891 C13.20565417 48.48716157 10.97120315 48.50881095 8.734375 48.5234375 C8.0497821 48.54610687 7.36518921 48.56877625 6.65985107 48.59213257 C2.84096233 48.57548471 0.48310798 47.95189193 -2.44677734 45.60717773 C-5 43 -5 43 -5.5859375 40.76171875 C-5.390625 38.84114583 -5.1953125 36.92057292 -5 35 C-3.02 35 -1.04 35 1 35 C1.33 36.32 1.66 37.64 2 39 C2.33 37.68 2.66 36.36 3 35 C5.31 35 7.62 35 10 35 C10 36.65 10 38.3 10 40 C10.99 39.505 10.99 39.505 12 39 C12.33 30.75 12.66 22.5 13 14 C8.71 14 4.42 14 0 14 C0 12.02 0 10.04 0 8 C6.27 8 12.54 8 19 8 C19.495 23.345 19.495 23.345 20 39 C21.9230889 37.0769111 21.25321838 33.52929515 21.31640625 30.90234375 C21.33718735 30.19348526 21.35796844 29.48462677 21.37937927 28.75428772 C21.44494598 26.48212695 21.5037923 24.20984736 21.5625 21.9375 C21.60567849 20.40037817 21.64929255 18.8632685 21.69335938 17.32617188 C21.80145734 13.55090144 21.90047637 9.77554534 22 6 C14.74 6 7.48 6 0 6 C0 4.02 0 2.04 0 0 Z M30 6 C30.495 6.33 30.99 6.66 31.5 7 C33.53633388 9.71511184 33.53553496 11.79181138 33.4375 15.125 C33 17 33 17 30.5 19 C29.675 19.33 28.85 19.66 28 20 C28.99 20.33 29.98 20.66 31 21 C34.67474171 18.90014759 35.82284689 17.58356317 37.0625 13.5 C37.33132911 9.97390228 37.33132911 9.97390228 35.25 7.5625 C33.04586933 5.7148021 33.04586933 5.7148021 30 6 Z M28 10 C28 11.65 28 13.3 28 15 C28.99 14.67 29.98 14.34 31 14 C30.34 12.68 29.68 11.36 29 10 C28.67 10 28.34 10 28 10 Z M29 27 C30.37485532 28.54166642 30.37485532 28.54166642 32 30 C32.66 30 33.32 30 34 30 C34 29.34 34 28.68 34 28 C32.35 27.67 30.7 27.34 29 27 Z M34 30 C33.87625 31.258125 33.7525 32.51625 33.625 33.8125 C33.30131941 37.10325263 32.93395001 38.09907498 31 41 C33.46800047 39.84826645 35.04783565 38.95216435 37 37 C36.67673447 33.40320934 36.67673447 33.40320934 36 30 C35.34 30 34.68 30 34 30 Z M28 32 C28 33.65 28 35.3 28 37 C28.99 36.34 29.98 35.68 31 35 C31 34.34 31 33.68 31 33 C30.01 32.67 29.02 32.34 28 32 Z " fill="#FFFFFF" transform="translate(5,0)"/>
</svg>
